<?xml version="1.0" encoding="utf-8"?>
<svg viewBox="0 0 58 58" width="58" height="58" xmlns="http://www.w3.org/2000/svg">
  <path d="M 44.418 4.456 C 40.014 1.721 36.16 0.444 30.286 0.079 C 24.78 5.186 24.964 15.582 30.286 20.324 C 32.489 11.57 37.628 6.827 44.418 4.456 Z M 50.842 9.381 C 42.582 9.016 36.159 16.494 36.159 23.79 C 42.95 19.23 50.842 19.048 57.449 22.695 C 56.349 16.859 54.265 13.782 50.842 9.381 Z M 58 30.173 C 52.86 24.702 42.767 25.249 37.811 30.356 C 45.904 32.309 50.291 36.01 53.962 44.217 C 56.764 39.62 58 36.193 58 30.174 L 58 30.173 Z M 48.823 50.601 C 48.273 41.846 42.299 36.696 34.324 36.192 C 38.452 43.366 39.28 50.054 35.609 57.349 C 41.089 55.859 44.235 54.431 48.823 50.601 Z M 27.717 58.079 C 33.039 52.789 33.407 44.217 27.717 37.834 C 25.514 46.771 20.742 51.33 13.585 53.884 C 18.514 56.873 21.715 57.547 27.717 58.079 Z M 7.528 48.777 C 16.102 47.981 21.66 42.394 21.66 34.186 C 16.337 38.381 7.344 38.928 0.37 35.827 C 2.318 41.494 3.866 44.457 7.528 48.777 Z M 0.003 27.802 C 4.591 32.727 14.135 33.456 20.192 27.802 C 11.565 25.796 6.513 20.744 4.224 14.122 C 1.654 17.953 -0.079 23.245 0.003 27.802 Z M 9.18 7.739 C 10.465 16.494 15.237 21.236 23.68 21.966 C 19.418 14.963 19.09 8.286 22.21 0.809 C 16.154 2.268 12.951 4.279 9.18 7.739 Z" fill="#F73737"/>
</svg>