<svg viewBox="68.99 25.16 100 16.28" width="100" height="16.28" xmlns="http://www.w3.org/2000/svg">
  <path d="M 71.256 39.152 C 69.746 37.612 68.99 35.662 68.99 33.3 C 68.99 30.939 69.745 28.995 71.256 27.47 C 72.781 25.93 74.703 25.16 77.02 25.16 C 79.616 25.16 81.662 26.099 83.158 27.976 C 83.827 28.799 84.321 29.75 84.61 30.77 L 82.63 30.77 C 82.322 30.037 81.933 29.413 81.464 28.9 C 80.305 27.653 78.824 27.03 77.02 27.03 C 75.245 27.03 73.793 27.61 72.664 28.768 C 71.534 29.927 70.97 31.438 70.97 33.3 C 70.97 35.163 71.535 36.673 72.664 37.832 C 73.794 38.991 75.245 39.57 77.02 39.57 C 78.853 39.57 80.371 38.895 81.574 37.546 C 82.058 36.989 82.447 36.306 82.74 35.5 L 84.72 35.5 C 84.368 36.644 83.855 37.634 83.18 38.47 C 81.64 40.45 79.587 41.44 77.02 41.44 C 74.703 41.44 72.781 40.677 71.256 39.152 Z M 87.356 41 L 87.356 25.6 L 89.336 25.6 L 89.336 39.13 L 97.366 39.13 L 97.366 41 L 87.356 41 Z M 100.733 39.152 C 99.222 37.612 98.467 35.662 98.467 33.3 C 98.467 30.939 99.222 28.995 100.733 27.47 C 102.258 25.93 104.179 25.16 106.497 25.16 C 108.814 25.16 110.728 25.93 112.239 27.47 C 113.764 28.995 114.527 30.939 114.527 33.3 C 114.527 35.661 113.764 37.612 112.239 39.152 C 110.728 40.677 108.814 41.44 106.497 41.44 C 104.179 41.44 102.258 40.677 100.733 39.152 Z M 102.141 28.768 C 101.011 29.927 100.447 31.438 100.447 33.3 C 100.447 35.163 101.011 36.673 102.141 37.832 C 103.27 38.991 104.722 39.57 106.497 39.57 C 108.271 39.57 109.723 38.99 110.853 37.832 C 111.982 36.673 112.547 35.162 112.547 33.3 C 112.547 31.437 111.982 29.927 110.853 28.768 C 109.723 27.609 108.271 27.03 106.497 27.03 C 104.722 27.03 103.27 27.61 102.141 28.768 Z M 117.283 41 L 117.283 25.6 L 123.883 25.6 C 125.599 25.6 126.963 26.055 127.975 26.964 C 128.987 27.874 129.493 29.032 129.493 30.44 C 129.493 31.599 129.134 32.589 128.415 33.41 C 127.711 34.231 126.714 34.781 125.423 35.06 L 129.383 41 L 127.073 41 L 123.333 35.28 L 119.263 35.28 L 119.263 41 L 117.283 41 Z M 119.263 33.41 L 123.883 33.41 C 125.071 33.41 125.973 33.146 126.589 32.618 C 127.205 32.075 127.513 31.349 127.513 30.44 C 127.513 29.53 127.205 28.812 126.589 28.284 C 125.973 27.741 125.071 27.47 123.883 27.47 L 119.263 27.47 L 119.263 33.41 Z M 132.344 41 L 132.344 25.6 L 143.124 25.6 L 143.124 27.47 L 134.324 27.47 L 134.324 32.31 L 141.474 32.31 L 141.474 34.18 L 134.324 34.18 L 134.324 39.13 L 143.124 39.13 L 143.124 41 L 132.344 41 Z M 145.376 40.956 C 145.126 40.706 145.002 40.391 145.002 40.01 C 145.002 39.629 145.126 39.313 145.376 39.064 C 145.625 38.814 145.94 38.69 146.322 38.69 C 146.703 38.69 147.018 38.815 147.268 39.064 C 147.517 39.314 147.642 39.629 147.642 40.01 C 147.642 40.391 147.517 40.707 147.268 40.956 C 147.018 41.206 146.703 41.33 146.322 41.33 C 145.94 41.33 145.625 41.205 145.376 40.956 Z M 149.071 41 L 153.031 25.6 L 159.081 25.6 L 163.041 41 L 161.061 41 L 159.851 36.49 L 152.261 36.49 L 151.051 41 L 149.071 41 Z M 152.701 34.62 L 159.411 34.62 L 157.541 27.47 L 154.571 27.47 L 152.701 34.62 Z M 165.237 41 L 165.237 25.6 L 167.217 25.6 L 167.217 41 L 165.237 41 Z" fill="#F73737"/>
</svg>